<svg width="36" height="36" viewBox="0 0 36 36" fill="none" xmlns="http://www.w3.org/2000/svg">
<circle cx="18" cy="18" r="18" fill="url(#paint0_linear)"/>
<path d="M26.9489 14.9955C26.9075 14.0907 26.7638 13.4728 26.5537 12.9323C26.3403 12.3651 26.0057 11.8513 25.5733 11.4267C25.1488 10.9943 24.6349 10.6595 24.0677 10.446C23.527 10.2361 22.9093 10.0925 22.0045 10.0514C21.098 10.0099 20.8084 10 18.5 10C16.1916 10 15.902 10.0099 14.9955 10.0511C14.0907 10.0925 13.473 10.2362 12.9323 10.4463C12.3651 10.6597 11.8513 10.9943 11.4267 11.4267C10.9943 11.8512 10.6595 12.3649 10.446 12.9321C10.2361 13.4728 10.0925 14.0907 10.0514 14.9954C10.0099 15.902 10 16.1915 10 18.4999C10 20.8084 10.0099 21.098 10.0514 22.0045C10.0926 22.9091 10.2363 23.527 10.4464 24.0677C10.6598 24.6348 10.9944 25.1487 11.4268 25.5732C11.8513 26.0056 12.3652 26.3402 12.9324 26.5536C13.473 26.7638 14.0909 26.9074 14.9956 26.9488C15.9022 26.9901 16.1917 26.9999 18.5001 26.9999C20.8085 26.9999 21.0981 26.9901 22.0046 26.9488C22.9094 26.9074 23.5272 26.7638 24.0679 26.5536C25.2096 26.1121 26.1122 25.2095 26.5537 24.0677C26.7639 23.527 26.9075 22.9091 26.9489 22.0045C26.9901 21.0979 27 20.8084 27 18.5C27 16.1915 26.9901 15.902 26.9489 14.9955ZM25.4188 21.9348C25.3811 22.7636 25.2426 23.2137 25.1262 23.5132C24.8402 24.2545 24.2544 24.8404 23.513 25.1264C23.2135 25.2427 22.7635 25.3812 21.9347 25.419C21.0386 25.4599 20.7697 25.4685 18.5 25.4685C16.2301 25.4685 15.9614 25.4599 15.0652 25.419C14.2365 25.3812 13.7865 25.2427 13.4868 25.1264C13.1177 24.99 12.7837 24.7728 12.5096 24.4904C12.2272 24.2163 12.01 23.8824 11.8736 23.5132C11.7573 23.2137 11.6188 22.7636 11.581 21.9348C11.5402 21.0386 11.5315 20.7697 11.5315 18.5001C11.5315 16.2304 11.5402 15.9616 11.581 15.0653C11.6189 14.2365 11.7573 13.7865 11.8736 13.487C12.01 13.1177 12.2273 12.7837 12.5096 12.5096C12.7837 12.2272 13.1177 12.01 13.487 11.8738C13.7865 11.7573 14.2365 11.6189 15.0653 11.581C15.9615 11.5402 16.2304 11.5315 18.5 11.5315C20.7696 11.5315 21.0384 11.5402 21.9347 11.5812C22.7635 11.6189 23.2134 11.7574 23.513 11.8738C23.8821 12.0101 24.2161 12.2273 24.4903 12.5096C24.7727 12.7837 24.9899 13.1177 25.1261 13.487C25.2426 13.7865 25.3811 14.2365 25.4188 15.0653C25.4597 15.9615 25.4684 16.2304 25.4684 18.5C25.4684 20.7697 25.4598 21.0385 25.4188 21.9348Z" fill="white"/>
<path d="M18.4998 14.135C16.0892 14.135 14.135 16.0893 14.135 18.4999C14.135 20.9105 16.0892 22.8647 18.4998 22.8647C20.9105 22.8647 22.8647 20.9105 22.8647 18.4999C22.8647 16.0893 20.9105 14.135 18.4998 14.135ZM18.4998 21.3332C16.9351 21.3331 15.6665 20.0646 15.6666 18.4998C15.6666 16.9351 16.9351 15.6665 18.4999 15.6665C20.0648 15.6666 21.3332 16.9351 21.3332 18.4998C21.3332 20.0646 20.0646 21.3332 18.4998 21.3332Z" fill="white"/>
<path d="M24.0574 13.9627C24.0574 14.526 23.6007 14.9827 23.0374 14.9827C22.474 14.9827 22.0173 14.526 22.0173 13.9627C22.0173 13.3993 22.474 12.9426 23.0374 12.9426C23.6007 12.9426 24.0574 13.3993 24.0574 13.9627Z" fill="white"/>
<defs>
<linearGradient id="paint0_linear" x1="31.5" y1="4" x2="6.5" y2="34" gradientUnits="userSpaceOnUse">
<stop stop-color="#D800B9"/>
<stop offset="0.615764" stop-color="#FF0100"/>
<stop offset="1" stop-color="#FFD600"/>
</linearGradient>
</defs>
</svg>
