<svg width="36" height="36" viewBox="0 0 36 36" fill="none" xmlns="http://www.w3.org/2000/svg">
<circle cx="18" cy="18" r="18" fill="#03A9F4"/>
<path d="M27.8966 12.7091C27.7769 12.5853 27.5842 12.5531 27.427 12.6306C27.2654 12.7001 27.0982 12.7573 26.9269 12.8017C27.194 12.4783 27.3956 12.1109 27.5217 11.7181C27.5772 11.5205 27.4529 11.3177 27.244 11.2651C27.1325 11.2371 27.0136 11.257 26.9191 11.3197C26.3241 11.6244 25.6917 11.8585 25.0361 12.0166C23.6866 10.8112 21.6309 10.6609 20.1017 11.6559C18.9237 12.4097 18.2753 13.7123 18.4112 15.0518C15.8578 14.8458 13.5085 13.6484 11.9217 11.7441C11.8402 11.6507 11.7169 11.5994 11.5891 11.6056C11.4595 11.6129 11.3423 11.6806 11.2761 11.7863C10.7375 12.6194 10.5815 13.6244 10.8441 14.5688C10.9787 15.0541 11.2095 15.5108 11.5242 15.9146C11.3824 15.8489 11.249 15.7681 11.1266 15.6739C10.9588 15.5451 10.7124 15.5694 10.5762 15.7282C10.5197 15.7941 10.4888 15.8764 10.4888 15.9613C10.512 17.3315 11.3071 18.5855 12.5737 19.2497C12.4028 19.2298 12.2341 19.1956 12.0696 19.1475C11.8627 19.0886 11.6445 19.1996 11.5822 19.3954C11.555 19.4808 11.5614 19.5727 11.6001 19.6541C12.1498 20.8194 13.2488 21.6706 14.5646 21.95C13.311 22.6194 11.8674 22.9006 10.4363 22.7544C10.2508 22.732 10.075 22.8387 10.0192 23.0077C9.96166 23.1753 10.0369 23.3581 10.1992 23.4447C11.9515 24.4299 13.9448 24.966 15.9828 25C17.9379 24.9932 19.8474 24.4406 21.4721 23.4113C24.5736 21.4635 26.5066 17.9662 26.2374 14.837C26.9006 14.3724 27.4759 13.805 27.9389 13.1587C28.034 13.0171 28.0167 12.8326 27.8966 12.7091Z" fill="white"/>
</svg>
