<svg width="36" height="36" viewBox="0 0 36 36" fill="none" xmlns="http://www.w3.org/2000/svg">
<circle cx="18" cy="18" r="18" fill="#1E88E5"/>
<path d="M24.4256 19.3995C24.0861 18.9708 24.1833 18.78 24.4256 18.3968C24.43 18.3924 27.2326 14.5196 27.5214 13.2062L27.5231 13.2054C27.6666 12.7267 27.5231 12.375 26.8293 12.375H24.5333C23.9488 12.375 23.6793 12.6769 23.5349 13.0146C23.5349 13.0146 22.3659 15.8129 20.7121 17.6268C20.1784 18.1509 19.9316 18.3189 19.6403 18.3189C19.4968 18.3189 19.2736 18.1509 19.2736 17.6723V13.2054C19.2736 12.6314 19.11 12.375 18.6261 12.375H15.0159C14.6493 12.375 14.4314 12.6428 14.4314 12.8921C14.4314 13.4364 15.2583 13.5615 15.344 15.0928V18.4151C15.344 19.1431 15.2119 19.277 14.9188 19.277C14.1383 19.277 12.2439 16.4674 11.1213 13.2517C10.8946 12.6279 10.6733 12.3759 10.0844 12.3759H7.7875C7.13212 12.3759 7 12.6777 7 13.0155C7 13.6123 7.7805 16.5794 10.6295 20.4994C12.5283 23.1751 15.2023 24.625 17.6348 24.625C19.0969 24.625 19.2754 24.303 19.2754 23.7491C19.2754 21.1924 19.1433 20.9509 19.8756 20.9509C20.2151 20.9509 20.7996 21.1189 22.1646 22.4095C23.7248 23.9399 23.9811 24.625 24.8544 24.625H27.1504C27.8049 24.625 28.1365 24.303 27.9458 23.6678C27.5091 22.3316 24.5586 19.5833 24.4256 19.3995Z" fill="white"/>
</svg>
