<svg width="13" height="9" viewBox="0 0 13 9" fill="none" xmlns="http://www.w3.org/2000/svg">
<path d="M6.36089 8.1775H7.1377C7.1377 8.1775 7.37253 8.1515 7.49198 8.0223C7.60248 7.90367 7.59842 7.68103 7.59842 7.68103C7.59842 7.68103 7.58298 6.63851 8.06727 6.48494C8.54424 6.3338 9.15691 7.49251 9.80615 7.93861C10.2969 8.27582 10.6699 8.20188 10.6699 8.20188L12.4063 8.1775C12.4063 8.1775 13.3148 8.12144 12.8841 7.4072C12.8492 7.34869 12.633 6.87903 11.593 5.91371C10.5041 4.90288 10.6504 5.06702 11.9619 3.3192C12.7606 2.25475 13.0799 1.6047 12.98 1.32681C12.8849 1.06191 12.2975 1.13179 12.2975 1.13179L10.3441 1.14317C10.3441 1.14317 10.1994 1.12367 10.0914 1.18786C9.98653 1.25124 9.91909 1.3975 9.91909 1.3975C9.91909 1.3975 9.60951 2.22143 9.19673 2.92186C8.32648 4.39991 7.97789 4.47791 7.83569 4.3861C7.50498 4.17239 7.58786 3.52641 7.58786 3.06812C7.58786 1.63558 7.80481 1.03835 7.16452 0.88396C6.95163 0.832769 6.79561 0.798642 6.25201 0.792954C5.55484 0.785641 4.9641 0.795391 4.63014 0.958716C4.4075 1.0676 4.23605 1.31055 4.34087 1.32437C4.47007 1.34143 4.76259 1.40319 4.91779 1.61445C5.11849 1.88666 5.11118 2.49933 5.11118 2.49933C5.11118 2.49933 5.22656 4.18539 4.84222 4.39503C4.57814 4.53886 4.21655 4.24552 3.44056 2.90399C3.04322 2.21737 2.74257 1.45763 2.74257 1.45763C2.74257 1.45763 2.68488 1.31624 2.58168 1.24067C2.45655 1.14886 2.28103 1.1196 2.28103 1.1196L0.423525 1.13098C0.423525 1.13098 0.144817 1.1391 0.0424345 1.26018C-0.0485721 1.36825 0.0351214 1.59089 0.0351214 1.59089C0.0351214 1.59089 1.4896 4.99308 3.13585 6.70839C4.64639 8.2807 6.36089 8.1775 6.36089 8.1775Z" fill="#1E88E5"/>
</svg>
